<?xml version="1.0" encoding="UTF-8" standalone="no"?>
<!DOCTYPE svg PUBLIC "-//W3C//DTD SVG 1.1//EN" "http://www.w3.org/Graphics/SVG/1.1/DTD/svg11.dtd">
<svg width="100%" height="100%" viewBox="0 0 820 350" version="1.1" xmlns="http://www.w3.org/2000/svg" xmlns:xlink="http://www.w3.org/1999/xlink" xml:space="preserve" xmlns:serif="http://www.serif.com/" style="fill-rule:evenodd;clip-rule:evenodd;stroke-linejoin:round;stroke-miterlimit:2;">
    <g transform="matrix(1,0,0,1,-870,0)">
        <rect id="RSVP-Nano-logo-white" x="870" y="0" width="820" height="350" style="fill:none;"/>
        <g id="RSVP-Nano-logo-white1" serif:id="RSVP-Nano-logo-white">
            <g transform="matrix(1.169795,0,0,1.171698,-13040.132477,-711.873541)">
                <path d="M11922.841,750.177L11899.637,750.177L11899.637,669.727L12011.083,669.727C12014.277,669.727 12017.155,670.02 12019.717,670.605C12022.279,671.189 12024.462,672.201 12026.268,673.638C12028.074,675.075 12029.465,676.996 12030.439,679.4C12031.414,681.804 12031.901,684.825 12031.901,688.462L12031.901,703.299C12031.901,707.423 12030.997,710.773 12029.189,713.35C12027.381,715.928 12024.658,717.833 12021.02,719.066C12024.98,720.238 12027.934,722.21 12029.881,724.98C12031.828,727.75 12032.802,731.345 12032.802,735.764L12032.802,750.965L12009.597,750.965L12009.597,732.107C12009.597,730.472 12009.172,729.307 12008.322,728.61C12007.473,727.913 12006.181,727.565 12004.446,727.565L11922.841,727.565L11922.841,750.177ZM11922.841,710.895L12003.98,710.895C12005.715,710.895 12007.007,710.547 12007.856,709.851C12008.706,709.154 12009.13,707.988 12009.13,706.353L12009.13,691.439C12009.13,689.96 12008.706,688.838 12007.856,688.074C12007.007,687.309 12005.715,686.926 12003.98,686.926L11922.841,686.926L11922.841,710.895ZM12047.981,728.449L12070.132,725.524L12070.132,733.386L12158.996,733.386L12158.996,719.159L12070.701,719.159C12067.454,719.159 12064.525,718.916 12061.915,718.429C12059.304,717.943 12057.092,717.05 12055.278,715.751C12053.465,714.452 12052.077,712.648 12051.114,710.339C12050.151,708.03 12049.669,705.062 12049.669,701.436L12049.669,686.716C12049.669,683.168 12050.188,680.29 12051.225,678.083C12052.263,675.876 12053.72,674.151 12055.597,672.909C12057.475,671.666 12059.717,670.825 12062.324,670.386C12064.932,669.947 12067.797,669.727 12070.919,669.727L12158.876,669.727C12162.039,669.727 12164.914,669.942 12167.501,670.372C12170.089,670.802 12172.312,671.633 12174.169,672.866C12176.028,674.098 12177.468,675.813 12178.489,678.011C12179.51,680.209 12180.021,683.074 12180.021,686.607L12180.021,692.53L12157.87,695.343L12157.87,687.306L12071.82,687.306L12071.82,701.58L12159.947,701.58C12163.11,701.58 12165.985,701.794 12168.573,702.223C12171.161,702.652 12173.389,703.48 12175.258,704.706C12177.127,705.932 12178.575,707.643 12179.603,709.839C12180.632,712.035 12181.146,714.909 12181.146,718.461L12181.146,733.3C12181.146,740.588 12179.263,745.354 12175.496,747.599C12171.73,749.843 12166.547,750.965 12159.947,750.965L12069.068,750.965C12065.821,750.965 12062.892,750.727 12060.281,750.25C12057.671,749.774 12055.454,748.89 12053.631,747.6C12051.809,746.31 12050.411,744.52 12049.439,742.23C12048.467,739.939 12047.981,736.981 12047.981,733.355L12047.981,728.449ZM11907.279,818.736C11902.577,816.249 11899.637,811.365 11899.637,806.047L11899.637,764.438L11922.841,764.438L11922.841,802.808L11966.2,825.631L12009.597,802.806L12009.597,764.437L12032.802,764.437L12032.802,806.045C12032.802,811.364 12029.861,816.247 12025.16,818.735C12009.14,827.212 11977.253,844.099 11977.253,844.099L11955.186,844.099C11955.186,844.099 11923.298,827.214 11907.279,818.736ZM12047.981,844.099L12047.981,764.437L12159.893,764.437C12166.263,764.437 12171.398,765.538 12175.297,767.741C12179.197,769.944 12181.146,774.523 12181.146,781.48L12181.146,801.907C12181.146,804.978 12180.675,807.563 12179.733,809.663C12178.791,811.763 12177.414,813.454 12175.602,814.737C12173.79,816.019 12171.566,816.938 12168.93,817.493C12166.294,818.048 12163.281,818.325 12159.893,818.325L12071.186,818.325L12071.186,844.099L12047.981,844.099ZM12071.186,799.282L12153.197,799.282C12154.842,799.282 12156.043,798.939 12156.802,798.252C12157.561,797.565 12157.941,796.395 12157.941,794.741L12157.941,788.021C12157.941,786.503 12157.561,785.366 12156.802,784.612C12156.043,783.857 12154.842,783.479 12153.197,783.479L12071.186,783.479L12071.186,799.282ZM12196.326,884.346L12196.326,897.734L11899.637,897.734L11899.637,884.346L12196.326,884.346ZM12583.335,884.262L12583.335,897.65L12286.67,897.65L12286.67,884.262L12583.335,884.262ZM12196.326,616.092L12196.326,629.48L11899.637,629.48L11899.637,616.092L12196.326,616.092ZM12583.335,616.092L12583.335,629.48L12286.67,629.48L12286.67,616.092L12583.335,616.092ZM12249.531,647.33L12233.465,647.33L12233.465,616.092L12249.531,616.092L12249.531,647.33ZM12249.531,897.65L12233.465,897.65L12233.465,866.412L12249.531,866.412L12249.531,897.65ZM12196.326,844.098L12196.326,669.644L12215.525,669.644L12261.263,770.465L12261.263,669.644L12286.713,669.644L12286.713,844.098L12267.311,844.098L12221.773,743.68L12221.773,844.098L12196.326,844.098ZM12292.711,844.098L12329.602,669.644L12351.613,669.644L12388.55,844.098L12361.821,844.098L12356.58,816.528L12322.62,816.528L12316.975,844.098L12292.711,844.098ZM12327.7,793.498L12352.078,793.498L12340.382,730.732L12327.7,793.498ZM12394.58,844.098L12394.58,669.644L12413.78,669.644L12459.517,770.465L12459.517,669.644L12484.967,669.644L12484.967,844.098L12465.565,844.098L12420.028,743.68L12420.028,844.098L12394.58,844.098ZM12500.154,700.02C12500.154,686.831 12503.735,678.136 12510.897,673.937C12518.06,669.738 12527.556,667.639 12539.386,667.639L12544.084,667.639C12555.996,667.639 12565.546,669.738 12572.735,673.937C12579.923,678.136 12583.517,686.831 12583.517,700.02L12583.517,812.513C12583.517,826.172 12580.074,835.186 12573.188,839.553C12566.302,843.92 12556.601,846.103 12544.084,846.103L12539.386,846.103C12526.868,846.103 12517.2,843.903 12510.381,839.503C12503.563,835.101 12500.154,826.105 12500.154,812.513L12500.154,700.02ZM12527.712,696.544L12527.712,817.198C12527.712,818.627 12527.993,819.628 12528.557,820.2C12529.121,820.771 12530.127,821.057 12531.573,821.057L12552.098,821.057C12553.544,821.057 12554.549,820.771 12555.112,820.2C12555.677,819.628 12555.959,818.627 12555.959,817.198L12555.959,696.544C12555.959,695.115 12555.677,694.115 12555.112,693.544C12554.549,692.972 12553.544,692.685 12552.098,692.685L12531.573,692.685C12530.127,692.685 12529.121,692.972 12528.557,693.544C12527.993,694.115 12527.712,695.115 12527.712,696.544Z" style="fill:white;"/>
            </g>
        </g>
    </g>
</svg>
